<?xml version="1.0" standalone="no"?><!DOCTYPE svg PUBLIC "-//W3C//DTD SVG 1.1//EN" "http://www.w3.org/Graphics/SVG/1.1/DTD/svg11.dtd"><svg t="1587022204595" class="icon" viewBox="0 0 1024 1024" version="1.1" xmlns="http://www.w3.org/2000/svg" p-id="2939" xmlns:xlink="http://www.w3.org/1999/xlink" width="200" height="200"><defs><style type="text/css"></style></defs><path d="M162 541h431l-0.1 2.6C581.8 652.8 489.6 738 377.5 738s-204.3-85.2-215.4-194.4l-0.1-2.6z" fill="#FFD795" p-id="2940"></path><path d="M328.6 541h89.9L573 615.2l-5.7 11.8-3.9 6.3-153.9-73.9 105 131.2-16.4 12.3-104.6-130.7L430.3 733l-9.6 2.5-10.6 1.6-36.7-160.3L337 736l-3.4-0.5-16.5-4.2 36.4-159-101.8 127.2-12-8.9-4.1-3.7 101.9-127.4-148.2 71.1-2.2-3.6-7.1-14.7L328.6 541z" fill="#FF6347" p-id="2941"></path><path d="M162.6 541.1l0.1 2.6c11 109 102.3 194.1 213.3 194.1s202.3-85.1 213.3-194.1l0.1-2.6H162.6zM129 541h495l-0.2 3.9C611.1 671.4 505.2 770 376.5 770s-234.6-98.6-247.3-225.1l-0.2-3.9z" fill="#F9992D" p-id="2942"></path><path d="M160.7 541.2z m0-0.2h354.7v0.1H547l-0.2 3.9C535.6 655.6 453 745 346.1 765.6L337 767l-9.1-1.3c-30.5-5.9-59.1-17.4-84.6-33.4l-18.5-12.8c-53.7-40.9-90.4-103.3-97.6-174.4-0.1-1.3-0.1-2.6-0.2-3.9h33.7v-0.2z" fill="#FFFDF8" fill-opacity=".471" p-id="2943"></path><path d="M556.2 309l9.6 14.8c38.5 56.2 91.3 117 154.8 175.3 52.9 48.6 106.8 89.7 157.6 121.5l18.4 11-7 13.5c-10.3 17.8-22.2 35.2-35.8 52C745.2 830.9 571.5 869.8 465.9 784s-103.1-263.7 5.5-397.5c20.4-25.1 43-46.8 67.1-65l17.7-12.5z" fill="#7B171C" p-id="2944"></path><path d="M554.2 309.9l14.3 18.4 0.4 0.4 11.5 16.2c36.8 50.1 84.2 103 139.7 154 33 30.4 66.5 57.8 99.4 81.9l17.8 12.7-13.7 21.3c-6.5 9.4-13.5 18.6-20.8 27.6-88.3 108.8-212.3 163-313.3 147.1l-23.1-5.1-1-0.7c-105.6-85.8-103.1-263.7 5.5-397.5 20.4-25.1 43-46.8 67.1-65l16.2-11.3z" fill="#FFFDF8" fill-opacity=".439" p-id="2945"></path><path d="M612.6 592.6c-96.9-89-132.2-208.2-78.9-266.1 53.3-58 175-32.8 271.8 56.2s132.2 208.2 78.9 266.1c-53.2 58-174.9 32.9-271.8-56.2z" fill="#A3E261" p-id="2946"></path><path d="M690.8 512c-49.9-45.9-77.9-96.6-62.5-113.4 15.4-16.7 68.3 6.9 118.2 52.8S824.4 548 809 564.8c-15.4 16.7-68.3-7-118.2-52.8z" fill="#FFD8B4" p-id="2947"></path><path d="M676 512c0-8.3 6.7-15 15-15s15 6.7 15 15-6.7 15-15 15-15-6.7-15-15zM652 488c0-8.3 6.7-15 15-15s15 6.7 15 15-6.7 15-15 15-15-6.7-15-15zM630 461c0-8.3 6.7-15 15-15s15 6.7 15 15-6.7 15-15 15-15-6.7-15-15zM614 431c0-8.3 6.7-15 15-15s15 6.7 15 15-6.7 15-15 15-15-6.7-15-15zM613 399c0-8.3 6.7-15 15-15s15 6.7 15 15-6.7 15-15 15-15-6.7-15-15zM646 396c0-8.3 6.7-15 15-15s15 6.7 15 15-6.7 15-15 15-15-6.7-15-15zM677 410.5c0-8 6.7-14.5 15-14.5s15 6.5 15 14.5-6.7 14.5-15 14.5-15-6.5-15-14.5zM705 430c0-8.3 6.7-15 15-15s15 6.7 15 15-6.7 15-15 15-15-6.7-15-15zM732 452c0-8.3 6.7-15 15-15s15 6.7 15 15-6.7 15-15 15-15-6.7-15-15zM756 476c0-8.3 6.7-15 15-15s15 6.7 15 15-6.7 15-15 15-15-6.7-15-15zM777 502.5c0-8 6.7-14.5 15-14.5s15 6.5 15 14.5-6.7 14.5-15 14.5-15-6.5-15-14.5zM794 532c0-8.3 6.7-15 15-15s15 6.7 15 15-6.7 15-15 15-15-6.7-15-15zM794 565c0-8.3 6.7-15 15-15s15 6.7 15 15-6.7 15-15 15-15-6.7-15-15zM762 567c0-8.3 6.5-15 14.5-15s14.5 6.7 14.5 15-6.5 15-14.5 15-14.5-6.7-14.5-15zM730 553c0-8.3 6.7-15 15-15s15 6.7 15 15-6.7 15-15 15-15-6.7-15-15zM702 534c0-8.3 6.7-15 15-15s15 6.7 15 15-6.7 15-15 15-15-6.7-15-15z" fill="#FFBA6C" p-id="2948"></path></svg>